<svg xmlns="http://www.w3.org/2000/svg" viewBox="0 0 180 180" width="180" height="180">
  <!-- Background -->
  <rect width="180" height="180" fill="#EC8F9A"></rect>

  <!-- Stylized left glyph -->
  <path d="M32 40
       L50 22
       L68 22
       L68 140
       L42 166
       L112 166
       L128 150
       L128 128
       L104 152
       L60 152
       L60 54
       Q60 42 48 42
       Z" fill="#000"></path>

  <!-- Stylized right glyph -->
  <path d="M86 34
       L108 18
       L136 18
       Q152 18 152 34
       L152 68
       L126 92
       L126 54
       Q126 44 116 44
       L94 44
       L94 116
       Q94 128 84 136
       L70 150
       L112 150
       L152 110
       L152 142
       Q152 154 142 162
       L62 162
       L86 138
       Z" fill="#000"></path>
</svg>
